<svg xmlns="http://www.w3.org/2000/svg" viewBox="0 0 1360 288"><g><rect x="0" y="0" width="1360" height="32" fill="#fff"></rect><text x="0" y="16" dominant-baseline="middle">Falp06</text></g><g><rect x="0" y="32" width="1360" height="32" fill="#00e851"></rect><text x="0" y="48" dominant-baseline="middle">yuzuki0061600</text></g><g><rect x="0" y="64" width="1360" height="32" fill="#fff"></rect><text x="0" y="80" dominant-baseline="middle">sabineko_427</text></g><g><rect x="0" y="96" width="1360" height="32" fill="#00e851"></rect><text x="0" y="112" dominant-baseline="middle">rokuharatandai3</text></g><g><rect x="0" y="128" width="1360" height="32" fill="#fff"></rect><text x="0" y="144" dominant-baseline="middle">keybooo865</text></g><g><rect x="0" y="160" width="1360" height="32" fill="#00e851"></rect><text x="0" y="176" dominant-baseline="middle">coddlfish</text></g><g><rect x="0" y="192" width="1360" height="32" fill="#fff"></rect><text x="0" y="208" dominant-baseline="middle">Uboot_Samon</text></g><g><rect x="0" y="224" width="1360" height="32" fill="#00e851"></rect><text x="0" y="240" dominant-baseline="middle">PandaDash334</text></g><g><rect x="0" y="256" width="1360" height="32" fill="#fff"></rect><text x="0" y="272" dominant-baseline="middle">_hunisuke_monkey</text></g><line x1="160" y1="0" x2="160" y2="288" stroke="gray"></line><line x1="220" y1="0" x2="220" y2="288" stroke="gray"></line><line x1="280" y1="0" x2="280" y2="288" stroke="gray"></line><line x1="340" y1="0" x2="340" y2="288" stroke="gray"></line><line x1="400" y1="0" x2="400" y2="288" stroke="gray"></line><line x1="460" y1="0" x2="460" y2="288" stroke="gray"></line><line x1="520" y1="0" x2="520" y2="288" stroke="gray"></line><line x1="580" y1="0" x2="580" y2="288" stroke="gray"></line><line x1="640" y1="0" x2="640" y2="288" stroke="gray"></line><line x1="700" y1="0" x2="700" y2="288" stroke="gray"></line><line x1="760" y1="0" x2="760" y2="288" stroke="gray"></line><line x1="820" y1="0" x2="820" y2="288" stroke="gray"></line><line x1="880" y1="0" x2="880" y2="288" stroke="gray"></line><line x1="940" y1="0" x2="940" y2="288" stroke="gray"></line><line x1="1000" y1="0" x2="1000" y2="288" stroke="gray"></line><line x1="1060" y1="0" x2="1060" y2="288" stroke="gray"></line><line x1="1120" y1="0" x2="1120" y2="288" stroke="gray"></line><line x1="1180" y1="0" x2="1180" y2="288" stroke="gray"></line><line x1="1240" y1="0" x2="1240" y2="288" stroke="gray"></line><line x1="1300" y1="0" x2="1300" y2="288" stroke="gray"></line></svg>